<svg xmlns="http://www.w3.org/2000/svg" viewBox="0 0 1400 920" font-family="'Segoe UI', Arial, Helvetica, sans-serif">
  <defs>
    <!-- Gradients -->
    <linearGradient id="bgGrad" x1="0%" y1="0%" x2="0%" y2="100%">
      <stop offset="0%" style="stop-color:#f8f9fc;stop-opacity:1"/>
      <stop offset="100%" style="stop-color:#e8ecf4;stop-opacity:1"/>
    </linearGradient>
    <linearGradient id="headerGrad" x1="0%" y1="0%" x2="100%" y2="0%">
      <stop offset="0%" style="stop-color:#1a2744;stop-opacity:1"/>
      <stop offset="100%" style="stop-color:#2d4a7a;stop-opacity:1"/>
    </linearGradient>
    <linearGradient id="phaseGrad" x1="0%" y1="0%" x2="0%" y2="100%">
      <stop offset="0%" style="stop-color:#3b82f6;stop-opacity:1"/>
      <stop offset="100%" style="stop-color:#2563eb;stop-opacity:1"/>
    </linearGradient>
    <linearGradient id="gateStrat" x1="0%" y1="0%" x2="0%" y2="100%">
      <stop offset="0%" style="stop-color:#f59e0b;stop-opacity:1"/>
      <stop offset="100%" style="stop-color:#d97706;stop-opacity:1"/>
    </linearGradient>
    <linearGradient id="gateTech" x1="0%" y1="0%" x2="0%" y2="100%">
      <stop offset="0%" style="stop-color:#10b981;stop-opacity:1"/>
      <stop offset="100%" style="stop-color:#059669;stop-opacity:1"/>
    </linearGradient>
    <linearGradient id="gateComp" x1="0%" y1="0%" x2="0%" y2="100%">
      <stop offset="0%" style="stop-color:#ef4444;stop-opacity:1"/>
      <stop offset="100%" style="stop-color:#dc2626;stop-opacity:1"/>
    </linearGradient>
    <linearGradient id="cicdGrad" x1="0%" y1="0%" x2="100%" y2="0%">
      <stop offset="0%" style="stop-color:#6366f1;stop-opacity:1"/>
      <stop offset="100%" style="stop-color:#8b5cf6;stop-opacity:1"/>
    </linearGradient>
    <linearGradient id="govGrad" x1="0%" y1="0%" x2="100%" y2="0%">
      <stop offset="0%" style="stop-color:#0f172a;stop-opacity:1"/>
      <stop offset="100%" style="stop-color:#1e3a5f;stop-opacity:1"/>
    </linearGradient>
    <!-- Shadow filter -->
    <filter id="shadow" x="-2%" y="-2%" width="104%" height="104%">
      <feDropShadow dx="1" dy="2" stdDeviation="3" flood-color="#00000020"/>
    </filter>
    <filter id="shadowSmall" x="-2%" y="-2%" width="104%" height="104%">
      <feDropShadow dx="0.5" dy="1" stdDeviation="1.5" flood-color="#00000015"/>
    </filter>
    <!-- Arrow marker -->
    <marker id="arrowRight" markerWidth="10" markerHeight="7" refX="10" refY="3.5" orient="auto">
      <polygon points="0 0, 10 3.5, 0 7" fill="#64748b"/>
    </marker>
    <marker id="arrowDown" markerWidth="7" markerHeight="10" refX="3.5" refY="10" orient="auto">
      <polygon points="0 0, 7 0, 3.5 10" fill="#94a3b8"/>
    </marker>
    <marker id="feedbackArrow" markerWidth="8" markerHeight="6" refX="0" refY="3" orient="auto">
      <polygon points="8 0, 0 3, 8 6" fill="#64748b"/>
    </marker>
  </defs>

  <!-- Background -->
  <rect width="1400" height="920" fill="url(#bgGrad)" rx="8"/>

  <!-- ============================================ -->
  <!-- HEADER -->
  <!-- ============================================ -->
  <rect x="20" y="12" width="1360" height="58" rx="6" fill="url(#headerGrad)" filter="url(#shadow)"/>
  <text x="40" y="48" font-size="18" font-weight="700" fill="#ffffff" letter-spacing="0.5">Enterprise-Referenzarchitektur für Generative KI</text>
  <text x="700" y="48" font-size="12" fill="#94b8db" text-anchor="middle">Cloud-native GenAIOps · Automatisierte Quality Gates · EU AI Act Compliance</text>
  <text x="1350" y="48" font-size="10" fill="#64748b" text-anchor="end">DSR-Artefakt v1.0 | Demir (2026)</text>

  <!-- ============================================ -->
  <!-- ROW 1: GOVERNANCE & STRATEGY LAYER (top bar) -->
  <!-- ============================================ -->
  <rect x="20" y="82" width="1360" height="42" rx="5" fill="url(#govGrad)" filter="url(#shadowSmall)"/>
  <text x="40" y="108" font-size="11" font-weight="700" fill="#fbbf24" letter-spacing="1">GOVERNANCE &amp; STRATEGY LAYER</text>
  <text x="300" y="108" font-size="10" fill="#cbd5e1">AI Strategy &amp; Policy</text>
  <text x="300" y="108" font-size="10" fill="#cbd5e1">AI Strategy &amp; Policy</text>
  <circle cx="430" cy="104" r="2" fill="#475569"/>
  <text x="445" y="108" font-size="10" fill="#cbd5e1">Risk Management (Art. 9)</text>
  <circle cx="600" cy="104" r="2" fill="#475569"/>
  <text x="615" y="108" font-size="10" fill="#cbd5e1">Roles &amp; Responsibilities (CoE)</text>
  <circle cx="800" cy="104" r="2" fill="#475569"/>
  <text x="815" y="108" font-size="10" fill="#cbd5e1">Audit Trail &amp; Documentation (Art. 11, 12)</text>
  <circle cx="1050" cy="104" r="2" fill="#475569"/>
  <text x="1065" y="108" font-size="10" fill="#cbd5e1">Continuous Feedback Loop</text>

  <!-- ============================================ -->
  <!-- ROW 2: 6 LIFECYCLE PHASES -->
  <!-- ============================================ -->
  <text x="40" y="152" font-size="12" font-weight="700" fill="#1e3a5f" letter-spacing="0.5">GenAIOps Lifecycle (6 Phasen)</text>

  <!-- Phase 1: DATA -->
  <rect x="30" y="162" width="195" height="120" rx="6" fill="#ffffff" stroke="#3b82f6" stroke-width="1.5" filter="url(#shadowSmall)"/>
  <rect x="30" y="162" width="195" height="28" rx="6" fill="url(#phaseGrad)"/>
  <rect x="30" y="183" width="195" height="7" fill="url(#phaseGrad)"/>
  <text x="47" y="182" font-size="12" font-weight="700" fill="#ffffff">① DATA</text>
  <text x="185" y="182" font-size="9" fill="#bfdbfe" text-anchor="end">Discover</text>
  <text x="42" y="208" font-size="9" fill="#374151">• Datenquellen-Identifikation</text>
  <text x="42" y="222" font-size="9" fill="#374151">• Datenqualität &amp; Lineage</text>
  <text x="42" y="236" font-size="9" fill="#374151">• Privacy / Anonymisierung</text>
  <text x="42" y="250" font-size="9" fill="#374151">• RAG-Daten-Pipeline</text>
  <text x="42" y="268" font-size="8" fill="#6b7280" font-style="italic">Art. 10 (Data Governance)</text>

  <!-- Arrow 1→2 -->
  <line x1="228" y1="222" x2="248" y2="222" stroke="#64748b" stroke-width="1.5" marker-end="url(#arrowRight)"/>

  <!-- Phase 2: MODEL -->
  <rect x="253" y="162" width="195" height="120" rx="6" fill="#ffffff" stroke="#3b82f6" stroke-width="1.5" filter="url(#shadowSmall)"/>
  <rect x="253" y="162" width="195" height="28" rx="6" fill="url(#phaseGrad)"/>
  <rect x="253" y="183" width="195" height="7" fill="url(#phaseGrad)"/>
  <text x="270" y="182" font-size="12" font-weight="700" fill="#ffffff">② MODEL</text>
  <text x="408" y="182" font-size="9" fill="#bfdbfe" text-anchor="end">Distill</text>
  <text x="265" y="208" font-size="9" fill="#374151">• Foundation-Model-Auswahl</text>
  <text x="265" y="222" font-size="9" fill="#374151">• Fine-tuning (LoRA/QLoRA)</text>
  <text x="265" y="236" font-size="9" fill="#374151">• Prompt Engineering</text>
  <text x="265" y="250" font-size="9" fill="#374151">• Versioning &amp; Registry</text>
  <text x="265" y="268" font-size="8" fill="#6b7280" font-style="italic">Art. 15 (Accuracy)</text>

  <!-- Arrow 2→3 -->
  <line x1="451" y1="222" x2="471" y2="222" stroke="#64748b" stroke-width="1.5" marker-end="url(#arrowRight)"/>

  <!-- Phase 3: EVAL -->
  <rect x="476" y="162" width="195" height="120" rx="6" fill="#ffffff" stroke="#3b82f6" stroke-width="1.5" filter="url(#shadowSmall)"/>
  <rect x="476" y="162" width="195" height="28" rx="6" fill="url(#phaseGrad)"/>
  <rect x="476" y="183" width="195" height="7" fill="url(#phaseGrad)"/>
  <text x="493" y="182" font-size="12" font-weight="700" fill="#ffffff">③ EVAL</text>
  <text x="631" y="182" font-size="9" fill="#bfdbfe" text-anchor="end">Validate</text>
  <text x="488" y="208" font-size="9" fill="#374151">• Benchmark / Red Teaming</text>
  <text x="488" y="222" font-size="9" fill="#374151">• Bias &amp; Fairness Testing</text>
  <text x="488" y="236" font-size="9" fill="#374151">• Safety &amp; Toxicity Checks</text>
  <text x="488" y="250" font-size="9" fill="#374151">• Human-in-the-Loop</text>
  <text x="488" y="268" font-size="8" fill="#6b7280" font-style="italic">Art. 9 (Risk), Art. 15 (Accuracy)</text>

  <!-- Arrow 3→4 -->
  <line x1="674" y1="222" x2="694" y2="222" stroke="#64748b" stroke-width="1.5" marker-end="url(#arrowRight)"/>

  <!-- Phase 4: DEPLOY -->
  <rect x="699" y="162" width="195" height="120" rx="6" fill="#ffffff" stroke="#3b82f6" stroke-width="1.5" filter="url(#shadowSmall)"/>
  <rect x="699" y="162" width="195" height="28" rx="6" fill="url(#phaseGrad)"/>
  <rect x="699" y="183" width="195" height="7" fill="url(#phaseGrad)"/>
  <text x="716" y="182" font-size="12" font-weight="700" fill="#ffffff">④ DEPLOY</text>
  <text x="854" y="182" font-size="9" fill="#bfdbfe" text-anchor="end">Release</text>
  <text x="711" y="208" font-size="9" fill="#374151">• Container / K8s Packaging</text>
  <text x="711" y="222" font-size="9" fill="#374151">• Canary / Blue-Green</text>
  <text x="711" y="236" font-size="9" fill="#374151">• IaC &amp; Policy-as-Code</text>
  <text x="711" y="250" font-size="9" fill="#374151">• Supply-Chain-Security</text>
  <text x="711" y="268" font-size="8" fill="#6b7280" font-style="italic">Art. 15 (Robustness)</text>

  <!-- Arrow 4→5 -->
  <line x1="897" y1="222" x2="917" y2="222" stroke="#64748b" stroke-width="1.5" marker-end="url(#arrowRight)"/>

  <!-- Phase 5: PROD -->
  <rect x="922" y="162" width="195" height="120" rx="6" fill="#ffffff" stroke="#3b82f6" stroke-width="1.5" filter="url(#shadowSmall)"/>
  <rect x="922" y="162" width="195" height="28" rx="6" fill="url(#phaseGrad)"/>
  <rect x="922" y="183" width="195" height="7" fill="url(#phaseGrad)"/>
  <text x="939" y="182" font-size="12" font-weight="700" fill="#ffffff">⑤ PROD</text>
  <text x="1077" y="182" font-size="9" fill="#bfdbfe" text-anchor="end">Deliver</text>
  <text x="934" y="208" font-size="9" fill="#374151">• Observability (Metrics/Logs)</text>
  <text x="934" y="222" font-size="9" fill="#374151">• Drift Detection</text>
  <text x="934" y="236" font-size="9" fill="#374151">• Cost &amp; Latency Monitoring</text>
  <text x="934" y="250" font-size="9" fill="#374151">• Incident Response</text>
  <text x="934" y="268" font-size="8" fill="#6b7280" font-style="italic">Art. 13 (Transparency), Art. 14 (Human O.)</text>

  <!-- Arrow 5→6 -->
  <line x1="1120" y1="222" x2="1140" y2="222" stroke="#64748b" stroke-width="1.5" marker-end="url(#arrowRight)"/>

  <!-- Phase 6: RETIRE -->
  <rect x="1145" y="162" width="225" height="120" rx="6" fill="#ffffff" stroke="#3b82f6" stroke-width="1.5" filter="url(#shadowSmall)"/>
  <rect x="1145" y="162" width="225" height="28" rx="6" fill="url(#phaseGrad)"/>
  <rect x="1145" y="183" width="225" height="7" fill="url(#phaseGrad)"/>
  <text x="1162" y="182" font-size="12" font-weight="700" fill="#ffffff">⑥ RETIRE</text>
  <text x="1330" y="182" font-size="9" fill="#bfdbfe" text-anchor="end">Decommission</text>
  <text x="1157" y="208" font-size="9" fill="#374151">• Model Archivierung</text>
  <text x="1157" y="222" font-size="9" fill="#374151">• Data Retention / Löschung</text>
  <text x="1157" y="236" font-size="9" fill="#374151">• Compliance-Nachweis</text>
  <text x="1157" y="250" font-size="9" fill="#374151">• Knowledge Transfer</text>
  <text x="1157" y="268" font-size="8" fill="#6b7280" font-style="italic">Art. 11 (Dokumentation), Art. 12 (Logs)</text>

  <!-- ============================================ -->
  <!-- FEEDBACK LOOP ARROW (PROD → DATA) -->
  <!-- ============================================ -->
  <path d="M 1019 285 L 1019 296 Q 1019 306 1009 306 L 140 306 Q 128 306 128 296 L 128 285" 
        fill="none" stroke="#64748b" stroke-width="1.2" stroke-dasharray="6,3" marker-end="url(#feedbackArrow)"/>
  <text x="580" y="303" font-size="9" fill="#64748b" font-style="italic">Continuous Feedback / Retrain / Re-evaluate</text>

  <!-- ============================================ -->
  <!-- ROW 3: QUALITY GATE FRAMEWORK -->
  <!-- ============================================ -->
  <text x="40" y="338" font-size="12" font-weight="700" fill="#1e3a5f" letter-spacing="0.5">Quality-Gate-Framework (3 Dimensionen × 6 Phasen)</text>
  <text x="460" y="338" font-size="9" fill="#6b7280">← DSR-Eigenleistung: formale QG-Definition für GenAI →</text>

  <!-- Gate dimension headers -->
  <!-- Strategic -->
  <rect x="30" y="348" width="1340" height="52" rx="5" fill="#fffbeb" stroke="#f59e0b" stroke-width="1" filter="url(#shadowSmall)"/>
  <rect x="30" y="348" width="160" height="52" rx="5" fill="url(#gateStrat)"/>
  <text x="110" y="370" font-size="11" font-weight="700" fill="#ffffff" text-anchor="middle">STRATEGISCH</text>
  <text x="110" y="384" font-size="8" fill="#fef3c7" text-anchor="middle">Governance &amp; Lifecycle</text>
  <!-- Strategic gate items across phases -->
  <text x="210" y="370" font-size="8.5" fill="#92400e">Business Case</text>
  <text x="210" y="384" font-size="8.5" fill="#92400e">Approval</text>
  <line x1="290" y1="355" x2="290" y2="393" stroke="#fcd34d" stroke-width="0.5"/>
  <text x="305" y="370" font-size="8.5" fill="#92400e">Model Selection</text>
  <text x="305" y="384" font-size="8.5" fill="#92400e">Review</text>
  <line x1="410" y1="355" x2="410" y2="393" stroke="#fcd34d" stroke-width="0.5"/>
  <text x="425" y="370" font-size="8.5" fill="#92400e">Evaluation</text>
  <text x="425" y="384" font-size="8.5" fill="#92400e">Sign-off</text>
  <line x1="530" y1="355" x2="530" y2="393" stroke="#fcd34d" stroke-width="0.5"/>
  <text x="545" y="370" font-size="8.5" fill="#92400e">Release</text>
  <text x="545" y="384" font-size="8.5" fill="#92400e">Approval</text>
  <line x1="640" y1="355" x2="640" y2="393" stroke="#fcd34d" stroke-width="0.5"/>
  <text x="655" y="370" font-size="8.5" fill="#92400e">SLA / KPI</text>
  <text x="655" y="384" font-size="8.5" fill="#92400e">Review</text>
  <line x1="750" y1="355" x2="750" y2="393" stroke="#fcd34d" stroke-width="0.5"/>
  <text x="765" y="370" font-size="8.5" fill="#92400e">Sunset</text>
  <text x="765" y="384" font-size="8.5" fill="#92400e">Decision</text>

  <!-- Trigger-Criteria-Evidence-Decision pattern -->
  <rect x="870" y="350" width="490" height="48" rx="4" fill="#fef9c3" stroke="#facc15" stroke-width="0.8"/>
  <text x="880" y="365" font-size="8" font-weight="600" fill="#713f12">Gate-Mechanismus:</text>
  <text x="880" y="380" font-size="8" fill="#854d0e">Trigger → Kriterien → Evidenz-Artefakte → Entscheidung (Go/NoGo) → Verantwortliche</text>
  <text x="880" y="393" font-size="7.5" fill="#a16207" font-style="italic">Shan &amp; Shan (2024): CoE Governance; Taeihagh (2025): AI Governance Frameworks</text>

  <!-- Technical -->
  <rect x="30" y="406" width="1340" height="52" rx="5" fill="#ecfdf5" stroke="#10b981" stroke-width="1" filter="url(#shadowSmall)"/>
  <rect x="30" y="406" width="160" height="52" rx="5" fill="url(#gateTech)"/>
  <text x="110" y="428" font-size="11" font-weight="700" fill="#ffffff" text-anchor="middle">TECHNISCH</text>
  <text x="110" y="442" font-size="8" fill="#a7f3d0" text-anchor="middle">Model Quality &amp; Perf.</text>
  <!-- Technical gate items -->
  <text x="210" y="428" font-size="8.5" fill="#065f46">Data Quality</text>
  <text x="210" y="442" font-size="8.5" fill="#065f46">Checks</text>
  <line x1="290" y1="413" x2="290" y2="451" stroke="#6ee7b7" stroke-width="0.5"/>
  <text x="305" y="428" font-size="8.5" fill="#065f46">Training</text>
  <text x="305" y="442" font-size="8.5" fill="#065f46">Metrics</text>
  <line x1="410" y1="413" x2="410" y2="451" stroke="#6ee7b7" stroke-width="0.5"/>
  <text x="425" y="428" font-size="8.5" fill="#065f46">Benchmark</text>
  <text x="425" y="442" font-size="8.5" fill="#065f46">Thresholds</text>
  <line x1="530" y1="413" x2="530" y2="451" stroke="#6ee7b7" stroke-width="0.5"/>
  <text x="545" y="428" font-size="8.5" fill="#065f46">Infra / Security</text>
  <text x="545" y="442" font-size="8.5" fill="#065f46">Scan</text>
  <line x1="640" y1="413" x2="640" y2="451" stroke="#6ee7b7" stroke-width="0.5"/>
  <text x="655" y="428" font-size="8.5" fill="#065f46">Latency / Drift</text>
  <text x="655" y="442" font-size="8.5" fill="#065f46">Alerts</text>
  <line x1="750" y1="413" x2="750" y2="451" stroke="#6ee7b7" stroke-width="0.5"/>
  <text x="765" y="428" font-size="8.5" fill="#065f46">Archival</text>
  <text x="765" y="442" font-size="8.5" fill="#065f46">Validation</text>

  <rect x="870" y="408" width="490" height="48" rx="4" fill="#d1fae5" stroke="#34d399" stroke-width="0.8"/>
  <text x="880" y="423" font-size="8" font-weight="600" fill="#064e3b">Automatisierte Checks:</text>
  <text x="880" y="438" font-size="8" fill="#065f46">SAST · DAST · Container-Scan · Model-Benchmark · Drift-Detection · Fitness Functions</text>
  <text x="880" y="451" font-size="7.5" fill="#047857" font-style="italic">Huang et al. (2024): DevSecOps; Kreuzberger et al. (2023): MLOps Pipelines; Pancini (2025)</text>

  <!-- Compliance -->
  <rect x="30" y="464" width="1340" height="52" rx="5" fill="#fef2f2" stroke="#ef4444" stroke-width="1" filter="url(#shadowSmall)"/>
  <rect x="30" y="464" width="160" height="52" rx="5" fill="url(#gateComp)"/>
  <text x="110" y="486" font-size="11" font-weight="700" fill="#ffffff" text-anchor="middle">COMPLIANCE</text>
  <text x="110" y="500" font-size="8" fill="#fecaca" text-anchor="middle">EU AI Act &amp; Standards</text>
  <!-- Compliance gate items -->
  <text x="210" y="486" font-size="8.5" fill="#7f1d1d">Art. 10 Data</text>
  <text x="210" y="500" font-size="8.5" fill="#7f1d1d">Governance</text>
  <line x1="290" y1="471" x2="290" y2="509" stroke="#fca5a5" stroke-width="0.5"/>
  <text x="305" y="486" font-size="8.5" fill="#7f1d1d">Art. 15 Accuracy</text>
  <text x="305" y="500" font-size="8.5" fill="#7f1d1d">Model Card</text>
  <line x1="410" y1="471" x2="410" y2="509" stroke="#fca5a5" stroke-width="0.5"/>
  <text x="425" y="486" font-size="8.5" fill="#7f1d1d">Art. 9 Risk</text>
  <text x="425" y="500" font-size="8.5" fill="#7f1d1d">Assessment</text>
  <line x1="530" y1="471" x2="530" y2="509" stroke="#fca5a5" stroke-width="0.5"/>
  <text x="545" y="486" font-size="8.5" fill="#7f1d1d">Art. 11, 12</text>
  <text x="545" y="500" font-size="8.5" fill="#7f1d1d">Doc &amp; Logs</text>
  <line x1="640" y1="471" x2="640" y2="509" stroke="#fca5a5" stroke-width="0.5"/>
  <text x="655" y="486" font-size="8.5" fill="#7f1d1d">Art. 13, 14</text>
  <text x="655" y="500" font-size="8.5" fill="#7f1d1d">Transparency</text>
  <line x1="750" y1="471" x2="750" y2="509" stroke="#fca5a5" stroke-width="0.5"/>
  <text x="765" y="486" font-size="8.5" fill="#7f1d1d">Retention</text>
  <text x="765" y="500" font-size="8.5" fill="#7f1d1d">&amp; Deletion</text>

  <rect x="870" y="466" width="490" height="48" rx="4" fill="#fee2e2" stroke="#f87171" stroke-width="0.8"/>
  <text x="880" y="481" font-size="8" font-weight="600" fill="#7f1d1d">Compliance-as-Code:</text>
  <text x="880" y="496" font-size="8" fill="#991b1b">OPA Policies · Conformity Checks · Evidence Generation · Audit Trail · Model Cards</text>
  <text x="880" y="509" font-size="7.5" fill="#b91c1c" font-style="italic">Burns et al. (2025): EU AI Act Compliance; Díaz-Rodríguez et al. (2023): capAI; Sovrano (2025)</text>

  <!-- ============================================ -->
  <!-- ROW 4: CI/CD/CT PIPELINE -->
  <!-- ============================================ -->
  <rect x="30" y="530" width="1340" height="48" rx="5" fill="url(#cicdGrad)" filter="url(#shadow)"/>
  <text x="50" y="555" font-size="11" font-weight="700" fill="#ffffff" letter-spacing="0.5">CI / CD / CT PIPELINE</text>
  <text x="50" y="570" font-size="8" fill="#c7d2fe">Continuous Integration · Continuous Delivery · Continuous Training</text>

  <!-- Pipeline stages -->
  <rect x="280" y="536" width="95" height="34" rx="4" fill="#4f46e5" stroke="#a5b4fc" stroke-width="0.5"/>
  <text x="327" y="557" font-size="9" font-weight="600" fill="#e0e7ff" text-anchor="middle">Code Commit</text>

  <text x="385" y="556" font-size="12" fill="#a5b4fc">→</text>

  <rect x="400" y="536" width="95" height="34" rx="4" fill="#4f46e5" stroke="#a5b4fc" stroke-width="0.5"/>
  <text x="447" y="557" font-size="9" font-weight="600" fill="#e0e7ff" text-anchor="middle">Build &amp; Scan</text>

  <text x="505" y="556" font-size="12" fill="#a5b4fc">→</text>

  <rect x="520" y="536" width="95" height="34" rx="4" fill="#4f46e5" stroke="#a5b4fc" stroke-width="0.5"/>
  <text x="567" y="557" font-size="9" font-weight="600" fill="#e0e7ff" text-anchor="middle">Test &amp; Eval</text>

  <text x="625" y="556" font-size="12" fill="#a5b4fc">→</text>

  <rect x="640" y="536" width="110" height="34" rx="4" fill="#4338ca" stroke="#a5b4fc" stroke-width="1"/>
  <text x="695" y="550" font-size="9" font-weight="700" fill="#fbbf24" text-anchor="middle">⛔ Gate Check</text>
  <text x="695" y="563" font-size="7.5" fill="#c7d2fe" text-anchor="middle">Policy-as-Code (OPA)</text>

  <text x="760" y="556" font-size="12" fill="#a5b4fc">→</text>

  <rect x="775" y="536" width="95" height="34" rx="4" fill="#4f46e5" stroke="#a5b4fc" stroke-width="0.5"/>
  <text x="822" y="557" font-size="9" font-weight="600" fill="#e0e7ff" text-anchor="middle">Deploy</text>

  <text x="880" y="556" font-size="12" fill="#a5b4fc">→</text>

  <rect x="895" y="536" width="95" height="34" rx="4" fill="#4f46e5" stroke="#a5b4fc" stroke-width="0.5"/>
  <text x="942" y="557" font-size="9" font-weight="600" fill="#e0e7ff" text-anchor="middle">Monitor</text>

  <text x="1000" y="556" font-size="12" fill="#a5b4fc">→</text>

  <rect x="1015" y="536" width="110" height="34" rx="4" fill="#4338ca" stroke="#fbbf24" stroke-width="1"/>
  <text x="1070" y="550" font-size="9" font-weight="700" fill="#fbbf24" text-anchor="middle">🔄 CT Trigger</text>
  <text x="1070" y="563" font-size="7.5" fill="#c7d2fe" text-anchor="middle">Retrain / Re-eval</text>

  <!-- Sinan reference -->
  <text x="1150" y="558" font-size="7.5" fill="#c7d2fe" font-style="italic">Sinan et al. (2025)</text>

  <!-- ============================================ -->
  <!-- ROW 5: CLOUD-NATIVE PLATFORM LAYER -->
  <!-- ============================================ -->
  <rect x="30" y="590" width="1340" height="95" rx="5" fill="#ffffff" stroke="#e2e8f0" stroke-width="1" filter="url(#shadowSmall)"/>
  <text x="50" y="612" font-size="11" font-weight="700" fill="#1e3a5f" letter-spacing="0.5">CLOUD-NATIVE PLATFORM LAYER</text>

  <!-- Sub-boxes -->
  <rect x="45" y="620" width="185" height="55" rx="4" fill="#f1f5f9" stroke="#cbd5e1" stroke-width="0.8"/>
  <text x="137" y="638" font-size="9" font-weight="600" fill="#334155" text-anchor="middle">Container &amp; Orchestrierung</text>
  <text x="137" y="653" font-size="8" fill="#64748b" text-anchor="middle">Docker · Kubernetes · Helm</text>
  <text x="137" y="666" font-size="8" fill="#64748b" text-anchor="middle">Kubeflow · vLLM / TGI</text>

  <rect x="245" y="620" width="185" height="55" rx="4" fill="#f1f5f9" stroke="#cbd5e1" stroke-width="0.8"/>
  <text x="337" y="638" font-size="9" font-weight="600" fill="#334155" text-anchor="middle">IaC &amp; GitOps</text>
  <text x="337" y="653" font-size="8" fill="#64748b" text-anchor="middle">Terraform · ArgoCD · Flux</text>
  <text x="337" y="666" font-size="8" fill="#64748b" text-anchor="middle">GitHub Actions · GitLab CI</text>

  <rect x="445" y="620" width="185" height="55" rx="4" fill="#f1f5f9" stroke="#cbd5e1" stroke-width="0.8"/>
  <text x="537" y="638" font-size="9" font-weight="600" fill="#334155" text-anchor="middle">Observability Stack</text>
  <text x="537" y="653" font-size="8" fill="#64748b" text-anchor="middle">Prometheus · Grafana · OTel</text>
  <text x="537" y="666" font-size="8" fill="#64748b" text-anchor="middle">OpenLLMetry · LangSmith</text>

  <rect x="645" y="620" width="185" height="55" rx="4" fill="#f1f5f9" stroke="#cbd5e1" stroke-width="0.8"/>
  <text x="737" y="638" font-size="9" font-weight="600" fill="#334155" text-anchor="middle">Security &amp; Policy</text>
  <text x="737" y="653" font-size="8" fill="#64748b" text-anchor="middle">OPA · Trivy · Falco · Snyk</text>
  <text x="737" y="666" font-size="8" fill="#64748b" text-anchor="middle">Zero-Trust · SBOM</text>

  <rect x="845" y="620" width="185" height="55" rx="4" fill="#f1f5f9" stroke="#cbd5e1" stroke-width="0.8"/>
  <text x="937" y="638" font-size="9" font-weight="600" fill="#334155" text-anchor="middle">Data &amp; Model Registry</text>
  <text x="937" y="653" font-size="8" fill="#64748b" text-anchor="middle">MLflow · DVC · W&amp;B</text>
  <text x="937" y="666" font-size="8" fill="#64748b" text-anchor="middle">Vector DB · Feature Store</text>

  <rect x="1045" y="620" width="310" height="55" rx="4" fill="#f0f9ff" stroke="#38bdf8" stroke-width="0.8"/>
  <text x="1200" y="638" font-size="9" font-weight="600" fill="#0c4a6e" text-anchor="middle">Deployment Target (Multi-Cloud / Sovereign)</text>
  <text x="1200" y="653" font-size="8" fill="#64748b" text-anchor="middle">Public Cloud (AWS/Azure/GCP) · Sovereign Cloud (GAIA-X)</text>
  <text x="1200" y="666" font-size="8" fill="#64748b" text-anchor="middle">On-Premises · Hybrid · Edge</text>

  <!-- ============================================ -->
  <!-- ROW 6: EU AI ACT COMPLIANCE MAPPING -->
  <!-- ============================================ -->
  <rect x="30" y="698" width="1340" height="62" rx="5" fill="#1e1b4b" filter="url(#shadow)"/>
  <text x="50" y="722" font-size="11" font-weight="700" fill="#fbbf24" letter-spacing="0.5">EU AI ACT — COMPLIANCE MAPPING (Verordnung (EU) 2024/1689)</text>

  <!-- Article boxes -->
  <rect x="50" y="732" width="90" height="20" rx="3" fill="#312e81"/>
  <text x="95" y="746" font-size="8" font-weight="600" fill="#c7d2fe" text-anchor="middle">Art. 9 Risk</text>
  
  <rect x="150" y="732" width="110" height="20" rx="3" fill="#312e81"/>
  <text x="205" y="746" font-size="8" font-weight="600" fill="#c7d2fe" text-anchor="middle">Art. 10 Data Gov.</text>
  
  <rect x="270" y="732" width="120" height="20" rx="3" fill="#312e81"/>
  <text x="330" y="746" font-size="8" font-weight="600" fill="#c7d2fe" text-anchor="middle">Art. 11 Tech. Doc.</text>

  <rect x="400" y="732" width="90" height="20" rx="3" fill="#312e81"/>
  <text x="445" y="746" font-size="8" font-weight="600" fill="#c7d2fe" text-anchor="middle">Art. 12 Logs</text>

  <rect x="500" y="732" width="120" height="20" rx="3" fill="#312e81"/>
  <text x="560" y="746" font-size="8" font-weight="600" fill="#c7d2fe" text-anchor="middle">Art. 13 Transp.</text>

  <rect x="630" y="732" width="130" height="20" rx="3" fill="#312e81"/>
  <text x="695" y="746" font-size="8" font-weight="600" fill="#c7d2fe" text-anchor="middle">Art. 14 Human O.</text>

  <rect x="770" y="732" width="120" height="20" rx="3" fill="#312e81"/>
  <text x="830" y="746" font-size="8" font-weight="600" fill="#c7d2fe" text-anchor="middle">Art. 15 Accuracy</text>

  <rect x="900" y="732" width="100" height="20" rx="3" fill="#312e81"/>
  <text x="950" y="746" font-size="8" font-weight="600" fill="#c7d2fe" text-anchor="middle">Art. 15 Robust.</text>

  <text x="1050" y="746" font-size="8" fill="#818cf8">→ operationalisiert als Policy-as-Code &amp; Compliance-as-Code in Gates</text>

  <!-- ============================================ -->
  <!-- ROW 7: DSR METHODOLOGY & EVIDENCE -->
  <!-- ============================================ -->
  <rect x="30" y="772" width="660" height="136" rx="5" fill="#ffffff" stroke="#e2e8f0" stroke-width="1" filter="url(#shadowSmall)"/>
  <text x="50" y="795" font-size="11" font-weight="700" fill="#1e3a5f" letter-spacing="0.5">DSR-Methodik (Hevner et al., 2004)</text>

  <!-- Three cycles -->
  <rect x="45" y="805" width="200" height="90" rx="4" fill="#fef3c7" stroke="#f59e0b" stroke-width="0.8"/>
  <text x="145" y="824" font-size="10" font-weight="700" fill="#92400e" text-anchor="middle">Relevance Cycle</text>
  <text x="55" y="840" font-size="8" fill="#78350f">• Enterprise-Kontext</text>
  <text x="55" y="853" font-size="8" fill="#78350f">• Regulatorischer Druck (EU AI Act)</text>
  <text x="55" y="866" font-size="8" fill="#78350f">• GenAIOps-Fragmentierung</text>
  <text x="55" y="879" font-size="8" fill="#78350f">• Quality-Gate-Lücke</text>

  <text x="255" y="850" font-size="14" fill="#94a3b8">⇄</text>

  <rect x="270" y="805" width="200" height="90" rx="4" fill="#dbeafe" stroke="#3b82f6" stroke-width="0.8"/>
  <text x="370" y="824" font-size="10" font-weight="700" fill="#1e3a5f" text-anchor="middle">Design Cycle</text>
  <text x="280" y="840" font-size="8" fill="#1e3a5f">• Design-Prinzipien (DP-1..n)</text>
  <text x="280" y="853" font-size="8" fill="#1e3a5f">• Architektur-Entwurf</text>
  <text x="280" y="866" font-size="8" fill="#1e3a5f">• QG-Framework</text>
  <text x="280" y="879" font-size="8" fill="#1e3a5f">• PoC / Instanziierung</text>

  <text x="480" y="850" font-size="14" fill="#94a3b8">⇄</text>

  <rect x="495" y="805" width="180" height="90" rx="4" fill="#ede9fe" stroke="#8b5cf6" stroke-width="0.8"/>
  <text x="585" y="824" font-size="10" font-weight="700" fill="#4c1d95" text-anchor="middle">Rigor Cycle</text>
  <text x="505" y="840" font-size="8" fill="#4c1d95">• MLOps/LLMOps-Literatur</text>
  <text x="505" y="853" font-size="8" fill="#4c1d95">• Cloud-native Standards</text>
  <text x="505" y="866" font-size="8" fill="#4c1d95">• AI Governance Frameworks</text>
  <text x="505" y="879" font-size="8" fill="#4c1d95">• EU AI Act (Primärquelle)</text>

  <!-- ============================================ -->
  <!-- EVALUATION BOX -->
  <!-- ============================================ -->
  <rect x="710" y="772" width="660" height="136" rx="5" fill="#ffffff" stroke="#e2e8f0" stroke-width="1" filter="url(#shadowSmall)"/>
  <text x="730" y="795" font-size="11" font-weight="700" fill="#1e3a5f" letter-spacing="0.5">Evaluation &amp; Evidenzbasis</text>

  <!-- Evaluation methods -->
  <rect x="725" y="805" width="150" height="90" rx="4" fill="#f0fdf4" stroke="#22c55e" stroke-width="0.8"/>
  <text x="800" y="824" font-size="9" font-weight="700" fill="#14532d" text-anchor="middle">Evaluation (4 Säulen)</text>
  <text x="735" y="840" font-size="8" fill="#166534">1. Requirements Coverage</text>
  <text x="735" y="854" font-size="8" fill="#166534">2. Szenario-Walkthrough</text>
  <text x="735" y="868" font-size="8" fill="#166534">3. Experten-Interviews</text>
  <text x="735" y="882" font-size="8" fill="#166534">4. PoC (Hybrid CI/CD)</text>

  <!-- Key references -->
  <rect x="890" y="805" width="470" height="90" rx="4" fill="#f8fafc" stroke="#e2e8f0" stroke-width="0.8"/>
  <text x="900" y="822" font-size="9" font-weight="700" fill="#1e3a5f">Kernquellen (Evidenzbasis)</text>
  <text x="900" y="838" font-size="7.5" fill="#475569">Kreuzberger et al. (2023) — MLOps Architecture Baseline [IEEE Access]</text>
  <text x="900" y="850" font-size="7.5" fill="#475569">Shan &amp; Shan (2024) — Enterprise LLMOps 4D Framework [IEEE Cloud Summit]</text>
  <text x="900" y="862" font-size="7.5" fill="#475569">Huang et al. (2024) — DevSecOps for GenAI, Policy-as-Code [Springer]</text>
  <text x="900" y="874" font-size="7.5" fill="#475569">Burns et al. (2025) — EU AI Act Compliance [AI Governance]</text>
  <text x="900" y="886" font-size="7.5" fill="#475569">Díaz-Rodríguez et al. (2023) — capAI: Conformity Assessment [Sci. Eng. Ethics]</text>

  <!-- Version info -->
  <text x="1350" y="912" font-size="8" fill="#94a3b8" text-anchor="end">Enterprise-Referenzarchitektur GenAIOps v1.0 — Exposé-Entwurf — © Demir 2026</text>
</svg>